<svg id="_x30_1" enable-background="new 0 0 62 62.41" height="512" viewBox="0 0 62 62.41" width="512" xmlns="http://www.w3.org/2000/svg"><g><g><g><path d="m61 50.41v2c0 .55-.45 1-1 1h-22-3-4-1v-.05c-.14-1.42-.55-2.75-1.17-3.95h28.17 3c.55 0 1 .45 1 1z" fill="#ccd1d9"/></g><g><path d="m30.86 5.41h12.14c-.87 1.16-1.5 2.52-1.8 4h-6.94l-1.62-1.63c-.77-.64-1.38-1.46-1.78-2.37z" fill="#ccd1d9"/></g><g><path d="m34.26 9.41h6.94c-.13.64-.2 1.31-.2 2 0 5.52 4.48 10 10 10 2.25 0 4.33-.75 6-2v30h-28.17c-1.84-3.59-5.57-6-9.83-6 3.86 0 7.36-1.57 9.9-4.1 2.53-2.54 4.1-6.04 4.1-9.9h1c.83 0 1.58-.34 2.12-.88s.88-1.29.88-2.12c0-1.2-.7-2.23-1.72-2.71l.85-2.13c.58-1.43.87-2.95.87-4.49 0-1.79-.4-3.55-1.14-5.13-.43-.91-.97-1.76-1.6-2.54z" fill="#e6e9ed"/></g><g><path d="m32.64 7.78 1.62 1.63c.63.78 1.17 1.63 1.6 2.54.74 1.58 1.14 3.34 1.14 5.13 0 1.54-.29 3.06-.87 4.49l-.85 2.13c-.39-.19-.82-.29-1.28-.29h-1v-6h-14.68c-1.91 0-3.72-.62-5.19-1.7l-6.11 2.12c-1.21.42-2.02 1.55-2.02 2.83v2.75h-1c-.46 0-.89.1-1.28.29l-.76-1.89c-.63-1.59-.96-3.28-.96-4.98 0-3.7 1.5-7.06 3.93-9.49s5.79-3.93 9.49-3.93h3.41c2.09 0 4.14-.48 6-1.42l1.17-.58 1 3 4-2 .48 1.92c.09.37.22.74.37 1.08h.01c.4.91 1.01 1.73 1.78 2.37z" fill="#b27946"/></g><g><path d="m19 43.41c4.26 0 7.99 2.41 9.83 6 .62 1.2 1.03 2.53 1.17 3.95v.05h-5l-1.9-6.32c-.32-1.1-.99-2.02-1.86-2.66-.87-.65-1.94-1.02-3.08-1.02v-.03c.28.02.56.03.84.03z" fill="#b4dd7f"/></g><g><path d="m14.72 54.57c1.34 4.02 5.06 6.75 9.28 6.83v.01h-11v-12.84c0 .56.09 1.11.26 1.63z" fill="#b4dd7f"/></g><g><path d="m31 53.41v8h-6.79c-.07 0-.14 0-.21-.01-4.22-.08-7.94-2.81-9.28-6.83l-1.46-4.37c-.17-.52-.26-1.07-.26-1.63 0-1.42.58-2.72 1.51-3.65s2.23-1.51 3.65-1.51c1.14 0 2.21.37 3.08 1.02.87.64 1.54 1.56 1.86 2.66l1.9 6.32h5z" fill="#b4dd7f"/></g><g><path d="m35 59.41v1c0 .55-.45 1-1 1h-3v-8h4z" fill="#a0d468"/></g><g><path d="m38 53.41c1.66 0 3 1.34 3 3 0 .83-.34 1.58-.88 2.12s-1.29.88-2.12.88h-3v-6z" fill="#f0d0b4"/></g><g><path d="m35.28 23.7c1.02.48 1.72 1.51 1.72 2.71 0 .83-.34 1.58-.88 2.12s-1.29.88-2.12.88h-1v-6h1c.46 0 .89.1 1.28.29z" fill="#f0d0b4"/></g><g><path d="m5 23.41v6h-1c-.83 0-1.58-.34-2.12-.88s-.88-1.29-.88-2.12c0-1.2.7-2.23 1.72-2.71.39-.19.82-.29 1.28-.29z" fill="#f0d0b4"/></g><g><path d="m28.9 39.31c-2.54 2.53-6.04 4.1-9.9 4.1-.28 0-.56-.01-.84-.03-7.34-.43-13.16-6.52-13.16-13.97v-6-2.75c0-1.28.81-2.41 2.02-2.83l6.11-2.12c1.47 1.08 3.28 1.7 5.19 1.7h14.68v6 6c0 3.86-1.57 7.36-4.1 9.9z" fill="#f0d0b4"/></g><g><path d="m51 1.41c5.52 0 10 4.48 10 10 0 3.27-1.57 6.17-4 8-1.67 1.25-3.75 2-6 2-5.52 0-10-4.48-10-10 0-.69.07-1.36.2-2 .3-1.48.93-2.84 1.8-4 1.83-2.43 4.73-4 8-4z" fill="#fcd770"/></g><g><path d="m53 26.41v16c0 .55-.45 1-1 1h-17v-7l7-5 3 2z" fill="#ff826e"/></g><g><path d="m25 33.41-.18 1.07c-.47 2.84-2.93 4.93-5.82 4.93s-5.35-2.09-5.82-4.93l-.18-1.07z" fill="#ff826e"/></g></g><g><path d="m14 26.41h2c0-2.206-1.794-4-4-4s-4 1.794-4 4h2c0-1.103.897-2 2-2s2 .897 2 2z"/><path d="m26 24.41c1.103 0 2 .897 2 2h2c0-2.206-1.794-4-4-4s-4 1.794-4 4h2c0-1.103.897-2 2-2z"/><path d="m25.809 34.643.371-2.232h-14.36l.371 2.232c.558 3.342 3.421 5.768 6.809 5.768s6.251-2.427 6.809-5.768zm-11.628-.233h9.639c-.435 2.323-2.445 4-4.819 4s-4.386-1.677-4.82-4z"/><path d="m50 16.226v2.184h2v-2h2v-3c0-1.654-1.346-3-3-3-.552 0-1-.449-1-1v-1h1c.552 0 1 .449 1 1v1h2v-1c0-1.302-.839-2.402-2-2.816v-2.184h-2v2h-2v3c0 1.654 1.346 3 3 3 .552 0 1 .449 1 1v1h-1c-.552 0-1-.449-1-1v-1h-2v1c0 1.302.839 2.402 2 2.816z"/><path d="m60 48.41h-2v-28.521c2.441-2.019 4-5.07 4-8.479 0-6.065-4.935-11-11-11-3.408 0-6.459 1.559-8.479 4h-10.964c-.034-.107-.08-.209-.107-.319l-.782-3.133-4.084 2.042-1-3-2.198 1.099c-1.715.858-3.636 1.311-5.553 1.311h-3.417c-7.949 0-14.416 6.467-14.416 14.417 0 1.844.347 3.645 1.031 5.354l.457 1.143c-.9.733-1.488 1.837-1.488 3.086 0 2.206 1.794 4 4 4h.051c.414 6.233 4.637 11.435 10.368 13.278-1.468 1.128-2.419 2.895-2.419 4.884v13.838h12v-.008c.07.001.138.008.208.008h9.792c1.103 0 2-.897 2-2h2c2.206 0 4-1.794 4-4 0-.732-.212-1.409-.556-2h18.556c1.103 0 2-.897 2-2v-2c0-1.102-.897-2-2-2zm-4 0h-16.103l.706-4h11.397c1.103 0 2-.897 2-2v-18.203l-9.082 7.947-2.938-1.958-7.562 5.401 1.162 1.627 6.438-4.599 1.98 1.32v8.465h-3.044l1.028-5.826-1.969-.348-2.146 12.174h-8.449c-1.243-2.148-3.12-3.856-5.374-4.892 5.492-1.97 9.501-7.047 9.904-13.108h.052c2.206 0 4-1.794 4-4 0-1.249-.587-2.353-1.488-3.087l.551-1.378c.622-1.555.937-3.192.937-4.866 0-2.382-.648-4.674-1.829-6.669h3.88c-.03.33-.051.662-.051 1 0 6.065 4.935 11 11 11 1.801 0 3.498-.444 5-1.214zm-10-14.546 2-1.75v10.296h-2zm6-5.25v13.796h-2v-12.046zm-27.938 18.187c-.147-.488-.364-.935-.612-1.358 2.709 1.335 4.73 3.862 5.381 6.967h-3.086zm11.938-20.391c0 1.103-.897 2-2 2v-4c1.103 0 2 .897 2 2zm15-24c4.963 0 9 4.038 9 9s-4.037 9-9 9-9-4.038-9-9 4.037-9 9-9zm-10.574 6h-5.726c-.437-.494-.899-.968-1.414-1.397-.223-.186-.429-.388-.618-.603h8.547c-.326.634-.59 1.303-.789 2zm-38.426 18c0-1.103.897-2 2-2v4c-1.103 0-2-.897-2-2zm2-5.747v1.747c-.238 0-.468.03-.695.07l-.417-1.043c-.589-1.472-.888-3.023-.888-4.611 0-6.846 5.569-12.416 12.416-12.416h3.417c2.227 0 4.456-.526 6.447-1.522l.136-.068 1 3 3.916-1.958.179.713c.392 1.566 1.254 2.94 2.493 3.973 2.54 2.116 3.996 5.226 3.996 8.53 0 1.418-.268 2.806-.794 4.124l-.511 1.278c-.227-.04-.457-.07-.695-.07v-4-1c0-3.354-2.51-6.197-5.837-6.612l-3.039-.38-.248 1.984 3.039.38c1.989.249 3.561 1.736 3.977 3.628h-13.568c-3.352 0-6.315-2.136-7.376-5.316l-1.896.633c.458 1.373 1.203 2.587 2.149 3.595l-4.509 1.562c-1.611.557-2.692 2.076-2.692 3.779zm2 8.747v-8.747c0-.852.541-1.611 1.346-1.89l5.641-1.954c1.551 1.012 3.39 1.591 5.338 1.591h13.675v11c0 7.168-5.832 13-13 13s-13-5.832-13-13zm8 31v-4.919c.808 2.025 2.172 3.716 3.885 4.919zm1.669-6.154-1.455-4.366c-.142-.427-.214-.871-.214-1.32 0-2.294 1.866-4.16 4.16-4.16 1.852 0 3.453 1.191 3.985 2.965l1.725 5.751-1.578 1.578 1.414 1.414 1.707-1.707h4.587v6h-5.792c-3.88-.001-7.312-2.474-8.539-6.155zm18.331 6.154h-2v-6h2zm-3.135-8c-.118-.691-.296-1.358-.523-2h7.173l-.353 2zm9.135 4c0 1.103-.897 2-2 2h-2v-4h2c1.103 0 2 .898 2 2zm20-4h-20.808l.353-2h20.455z"/><path d="m40 22.41h6v2h-6z"/><path d="m40 26.41h6v2h-6z"/></g></g></svg>