<svg id="Layer_5" enable-background="new 0 0 62 62" height="512" viewBox="0 0 62 62" width="512" xmlns="http://www.w3.org/2000/svg"><g><g><g><path d="m50 58v2c0 .55-.45 1-1 1h-20c-.55 0-1-.45-1-1v-2c0-.55.45-1 1-1h3 14 3c.55 0 1 .45 1 1z" fill="#969faa"/></g><g><path d="m32 51h14v6h-14z" fill="#aab2bd"/></g><g><path d="m61 43v4c0 2.21-1.79 4-4 4h-11-14-10v-8z" fill="#ccd1d9"/></g><g><path d="m48 21v-4h9c2.21 0 4 1.79 4 4v22h-39v-2c0-1.1-.9-2-2-2h-2c1.1 0 2-.9 2-2v-4.28c7.4-1.4 13-7.9 13-15.72h11v4h2z" fill="#69d6f4"/></g><g><path d="m20 39c1.1 0 2 .9 2 2v2 8 5c0 1.38-.56 2.63-1.46 3.54-.91.9-2.16 1.46-3.54 1.46-2.76 0-5-2.24-5-5v-15c0-1.1.9-2 2-2h2 2z" fill="#969faa"/></g><g><path d="m20 32.72v4.28c0 1.1-.9 2-2 2h-2c-1.1 0-2-.9-2-2v-4.28c.97.18 1.98.28 3 .28s2.03-.1 3-.28z" fill="#ccd1d9"/></g><g><circle cx="17" cy="17" fill="#fcd770" r="16"/></g><g><circle cx="17" cy="17" fill="#4fc1e9" r="12"/></g><g><path d="m56 7v4h-2-2v-4h2z" fill="#ef7385"/></g><g><path d="m48 17v4h-2-2v-4-4h2 2z" fill="#ef7385"/></g><g><path d="m40 3v8h-2-2v-8h2z" fill="#ef7385"/></g><g><path d="m30 12h2v5 3h-2-1.38-.62v-7.8-.2z" fill="#ef7385"/></g><g><path d="m25 15v4h-2-2v-4h2z" fill="#ef7385"/></g><g><path d="m17 11v8h-2-2v-8h2z" fill="#ef7385"/></g></g><g><path d="m4 17c0 7.168 5.832 13 13 13 3.667 0 7.182-1.561 9.644-4.282l-1.483-1.342c-2.084 2.303-5.058 3.624-8.161 3.624-6.065 0-11-4.935-11-11s4.935-11 11-11c2.698 0 5.293.987 7.308 2.778l1.329-1.494c-2.381-2.118-5.449-3.284-8.637-3.284-7.168 0-13 5.832-13 13z"/><path d="m57 16h-8v-4h-2v-2h-2v2h-2v4h-10v-5h-2v-2h-2v2h-2v10h2v2h2v-2h2v-3h10v4h2v2h2v-2h2v-4h8c1.654 0 3 1.346 3 3v21h-37v-1c0-1.383-.945-2.539-2.22-2.884.139-.346.22-.721.22-1.116v-3.49c4.438-1.083 8.345-3.926 10.696-7.959l-1.728-1.007c-2.681 4.599-7.65 7.456-12.968 7.456-8.271 0-15-6.729-15-15s6.729-15 15-15c4.576 0 8.845 2.05 11.71 5.625l1.561-1.251c-3.248-4.051-8.084-6.374-13.271-6.374-9.374 0-17 7.626-17 17 0 7.994 5.553 14.699 13 16.505v3.495c0 .395.081.77.22 1.116-1.275.345-2.22 1.501-2.22 2.884v15c0 3.309 2.691 6 6 6s6-2.691 6-6v-4h8v4h-2c-1.103 0-2 .897-2 2v2c0 1.103.897 2 2 2h20c1.103 0 2-.897 2-2v-2c0-1.103-.897-2-2-2h-2v-4h10c2.757 0 5-2.243 5-5v-26c0-2.757-2.243-5-5-5zm-26 3h-2v-6h2zm16 1h-2v-6h2zm-30 14c.673 0 1.34-.047 2-.125v3.125c0 .551-.449 1-1 1h-2c-.551 0-1-.449-1-1v-3.128c.657.077 1.322.128 2 .128zm4 22c0 2.206-1.794 4-4 4s-4-1.794-4-4v-15c0-.551.449-1 1-1h2 2 2c.551 0 1 .449 1 1zm28.001 4h-20.001v-2h20zm-4.001-4h-12v-4h12zm12-6h-34v-6h37v3c0 1.654-1.346 3-3 3z"/><circle cx="57" cy="47" r="1"/><circle cx="53" cy="47" r="1"/><circle cx="49" cy="47" r="1"/><path d="m55 36h-2c-.551 0-1-.449-1-1h-2c0 1.654 1.346 3 3 3v2h2v-2c1.654 0 3-1.346 3-3s-1.346-3-3-3h-2c-.551 0-1-.449-1-1s.449-1 1-1h2c.551 0 1 .449 1 1h2c0-1.654-1.346-3-3-3v-2h-2v2c-1.654 0-3 1.346-3 3s1.346 3 3 3h2c.551 0 1 .449 1 1s-.449 1-1 1z"/><path d="m16 22v-2h2v-10h-2v-2h-2v2h-2v10h2v2zm-2-10h2v6h-2z"/><path d="m37 14h2v-2h2v-10h-2v-2h-2v2h-2v10h2zm0-10h2v6h-2z"/><path d="m24 22v-2h2v-6h-2v-2h-2v2h-2v6h2v2zm-2-6h2v2h-2z"/><path d="m53 14h2v-2h2v-6h-2v-2h-2v2h-2v6h2zm0-6h2v2h-2z"/><path d="m32 30h14v2h-14z"/><path d="m32 34h14v2h-14z"/><path d="m40 38h2v2h-2z"/><path d="m36 38h2v2h-2z"/><path d="m44 38h2v2h-2z"/></g></g></svg>